# xmcd CD database file
# Copyright (C) 1993-1998 Ti Kan
#
# Track frame offsets:
#  200
#  16125
#  27375
#  40362
#  53712
#  65550
#  74950
#  87930
#  101975
#  114092
#  123840
#  138007
#
# Disc length: 2001 seconds
#
# Revision: 1
# Processed by: cddbd v1.4b41PL1 Copyright (c) Steve Scherf et al.
# Submitted via: CDWizzard Release:4.35
#
DISCID=a407cf0c
DTITLE=Moe Bandy - Gospel Favorites
DYEAR=1900
DGENRE=
TTITLE0=How Great Thou Art
TTITLE1=Will The Circle Be Unbroken
TTITLE2=Amazing Grace
TTITLE3=Wonderful Time Up There
TTITLE4=Softly And Tenderly
TTITLE5=I Saw The Light
TTITLE6=I'll Flay Away
TTITLE7=Father Along
TTITLE8=Just A Closer Walk With Thee
TTITLE9=Turn Your Radio On
TTITLE10=House Of Gold
TTITLE11=Old Rugged Cross
EXTD=
EXTT0=
EXTT1=
EXTT2=
EXTT3=
EXTT4=
EXTT5=
EXTT6=
EXTT7=
EXTT8=
EXTT9=
EXTT10=
EXTT11=
PLAYORDER=
